<?xml version="1.0" encoding="utf-8" ?>
<svg baseProfile="full" height="57.5mm" version="1.1" viewBox="0,0,306.20000000000005,57.5" width="306.20000000000005mm" xmlns="http://www.w3.org/2000/svg" xmlns:ev="http://www.w3.org/2001/xml-events" xmlns:xlink="http://www.w3.org/1999/xlink"><defs /><rect fill="#FFFFFF" height="57.5" width="306.20000000000005" x="0" y="0" /><text fill="#000000" style="font-size:6px; font-family:Arial; font-weight:bold;" x="10" y="10" /><text fill="#000000" style="font-size:3px; font-family:Arial;" x="10" y="14.4">2024: 350 hours</text><text fill="#000000" style="font-size:2.5px; font-family:Arial" x="10" y="18.3">Jan</text><rect fill="#a8e5aa" height="4" rx="1" ry="1" width="4" x="10" y="19.7"><title>2024-01-01 22.48 mins</title></rect><rect fill="#EBEDF0" height="4" rx="1" ry="1" width="4" x="10" y="25.1"><title>2024-01-02</title></rect><rect fill="#ace7ae" height="4" rx="1" ry="1" width="4" x="10" y="30.5"><title>2024-01-03 0.13 mins</title></rect><rect fill="#ace7ae" height="4" rx="1" ry="1" width="4" x="10" y="35.9"><title>2024-01-04 0.02 mins</title></rect><rect fill="#ace7ae" height="4" rx="1" ry="1" width="4" x="10" y="41.300000000000004"><title>2024-01-05 0.03 mins</title></rect><rect fill="#ace7ae" height="4" rx="1" ry="1" width="4" x="10" y="46.699999999999996"><title>2024-01-06 0.93 mins</title></rect><rect fill="#ace7ae" height="4" rx="1" ry="1" width="4" x="10" y="52.1"><title>2024-01-07 0.03 mins</title></rect><rect fill="#a9e6ab" height="4" rx="1" ry="1" width="4" x="15.4" y="19.7"><title>2024-01-08 14.55 mins</title></rect><rect fill="#aae6ac" height="4" rx="1" ry="1" width="4" x="15.4" y="25.1"><title>2024-01-09 8.7 mins</title></rect><rect fill="#a6e4a8" height="4" rx="1" ry="1" width="4" x="15.4" y="30.5"><title>2024-01-10 31.57 mins</title></rect><rect fill="#549F57" height="4" rx="1" ry="1" width="4" x="15.4" y="35.9"><title>2024-01-11 133.12 mins</title></rect><rect fill="#67bf6c" height="4" rx="1" ry="1" width="4" x="15.4" y="41.300000000000004"><title>2024-01-12 37.55 mins</title></rect><rect fill="#aae6ac" height="4" rx="1" ry="1" width="4" x="15.4" y="46.699999999999996"><title>2024-01-13 10.18 mins</title></rect><rect fill="#ace7ae" height="4" rx="1" ry="1" width="4" x="15.4" y="52.1"><title>2024-01-14 1.18 mins</title></rect><rect fill="#67bf6c" height="4" rx="1" ry="1" width="4" x="20.8" y="19.7"><title>2024-01-15 44.15 mins</title></rect><rect fill="#ace7ae" height="4" rx="1" ry="1" width="4" x="20.8" y="25.1"><title>2024-01-16 2.1 mins</title></rect><rect fill="#a7e5a9" height="4" rx="1" ry="1" width="4" x="20.8" y="30.5"><title>2024-01-17 25.97 mins</title></rect><rect fill="#a7e5a9" height="4" rx="1" ry="1" width="4" x="20.8" y="35.9"><title>2024-01-18 26.57 mins</title></rect><rect fill="#67bf6c" height="4" rx="1" ry="1" width="4" x="20.8" y="41.300000000000004"><title>2024-01-19 48.93 mins</title></rect><rect fill="#ace7ae" height="4" rx="1" ry="1" width="4" x="20.8" y="46.699999999999996"><title>2024-01-20 0.08 mins</title></rect><rect fill="#EBEDF0" height="4" rx="1" ry="1" width="4" x="20.8" y="52.1"><title>2024-01-21</title></rect><rect fill="#ace7ae" height="4" rx="1" ry="1" width="4" x="26.200000000000003" y="19.7"><title>2024-01-22 1.5 mins</title></rect><rect fill="#67bf6c" height="4" rx="1" ry="1" width="4" x="26.200000000000003" y="25.1"><title>2024-01-23 43.65 mins</title></rect><rect fill="#67bf6c" height="4" rx="1" ry="1" width="4" x="26.200000000000003" y="30.5"><title>2024-01-24 43.88 mins</title></rect><rect fill="#66be6b" height="4" rx="1" ry="1" width="4" x="26.200000000000003" y="35.9"><title>2024-01-25 71.28 mins</title></rect><rect fill="#66be6b" height="4" rx="1" ry="1" width="4" x="26.200000000000003" y="41.300000000000004"><title>2024-01-26 73.9 mins</title></rect><rect fill="#549F57" height="4" rx="1" ry="1" width="4" x="26.200000000000003" y="46.699999999999996"><title>2024-01-27 219.05 mins</title></rect><rect fill="#65bd6a" height="4" rx="1" ry="1" width="4" x="26.200000000000003" y="52.1"><title>2024-01-28 88.97 mins</title></rect><rect fill="#66be6b" height="4" rx="1" ry="1" width="4" x="31.6" y="19.7"><title>2024-01-29 65.28 mins</title></rect><rect fill="#549F57" height="4" rx="1" ry="1" width="4" x="31.6" y="25.1"><title>2024-01-30 238.63 mins</title></rect><rect fill="#549F57" height="4" rx="1" ry="1" width="4" x="31.6" y="30.5"><title>2024-01-31 249.77 mins</title></rect><rect fill="#67be6b" height="4" rx="1" ry="1" width="4" x="31.6" y="35.9"><title>2024-02-01 55.77 mins</title></rect><rect fill="#EBEDF0" height="4" rx="1" ry="1" width="4" x="31.6" y="41.300000000000004"><title>2024-02-02</title></rect><rect fill="#EBEDF0" height="4" rx="1" ry="1" width="4" x="31.6" y="46.699999999999996"><title>2024-02-03</title></rect><rect fill="#ace7ae" height="4" rx="1" ry="1" width="4" x="31.6" y="52.1"><title>2024-02-04 0.17 mins</title></rect><text fill="#000000" style="font-size:2.5px; font-family:Arial" x="37.0" y="18.3">Feb</text><rect fill="#aae6ac" height="4" rx="1" ry="1" width="4" x="37.0" y="19.7"><title>2024-02-05 12.87 mins</title></rect><rect fill="#aae6ac" height="4" rx="1" ry="1" width="4" x="37.0" y="25.1"><title>2024-02-06 8.53 mins</title></rect><rect fill="#a9e6ac" height="4" rx="1" ry="1" width="4" x="37.0" y="30.5"><title>2024-02-07 13.83 mins</title></rect><rect fill="#65bd6a" height="4" rx="1" ry="1" width="4" x="37.0" y="35.9"><title>2024-02-08 82.08 mins</title></rect><rect fill="#65bd6a" height="4" rx="1" ry="1" width="4" x="37.0" y="41.300000000000004"><title>2024-02-09 81.17 mins</title></rect><rect fill="#a8e5aa" height="4" rx="1" ry="1" width="4" x="37.0" y="46.699999999999996"><title>2024-02-10 22.98 mins</title></rect><rect fill="#a5e4a7" height="4" rx="1" ry="1" width="4" x="37.0" y="52.1"><title>2024-02-11 37.35 mins</title></rect><rect fill="#66be6b" height="4" rx="1" ry="1" width="4" x="42.4" y="19.7"><title>2024-02-12 63.17 mins</title></rect><rect fill="#549F57" height="4" rx="1" ry="1" width="4" x="42.4" y="25.1"><title>2024-02-13 116.05 mins</title></rect><rect fill="#549F57" height="4" rx="1" ry="1" width="4" x="42.4" y="30.5"><title>2024-02-14 117.67 mins</title></rect><rect fill="#67bf6c" height="4" rx="1" ry="1" width="4" x="42.4" y="35.9"><title>2024-02-15 44.95 mins</title></rect><rect fill="#a6e4a9" height="4" rx="1" ry="1" width="4" x="42.4" y="41.300000000000004"><title>2024-02-16 30.8 mins</title></rect><rect fill="#549F57" height="4" rx="1" ry="1" width="4" x="42.4" y="46.699999999999996"><title>2024-02-17 96.5 mins</title></rect><rect fill="#a7e5a9" height="4" rx="1" ry="1" width="4" x="42.4" y="52.1"><title>2024-02-18 29.8 mins</title></rect><rect fill="#549F57" height="4" rx="1" ry="1" width="4" x="47.8" y="19.7"><title>2024-02-19 179.57 mins</title></rect><rect fill="#549F57" height="4" rx="1" ry="1" width="4" x="47.8" y="25.1"><title>2024-02-20 96.83 mins</title></rect><rect fill="#549F57" height="4" rx="1" ry="1" width="4" x="47.8" y="30.5"><title>2024-02-21 93.57 mins</title></rect><rect fill="#549F57" height="4" rx="1" ry="1" width="4" x="47.8" y="35.9"><title>2024-02-22 130.47 mins</title></rect><rect fill="#65bd6a" height="4" rx="1" ry="1" width="4" x="47.8" y="41.300000000000004"><title>2024-02-23 81.25 mins</title></rect><rect fill="#a7e5aa" height="4" rx="1" ry="1" width="4" x="47.8" y="46.699999999999996"><title>2024-02-24 25.2 mins</title></rect><rect fill="#549F57" height="4" rx="1" ry="1" width="4" x="47.8" y="52.1"><title>2024-02-25 131.87 mins</title></rect><rect fill="#66be6b" height="4" rx="1" ry="1" width="4" x="53.199999999999996" y="19.7"><title>2024-02-26 60.88 mins</title></rect><rect fill="#66be6b" height="4" rx="1" ry="1" width="4" x="53.199999999999996" y="25.1"><title>2024-02-27 66.87 mins</title></rect><rect fill="#a7e5a9" height="4" rx="1" ry="1" width="4" x="53.199999999999996" y="30.5"><title>2024-02-28 25.67 mins</title></rect><rect fill="#549F57" height="4" rx="1" ry="1" width="4" x="53.199999999999996" y="35.9"><title>2024-02-29 112.43 mins</title></rect><rect fill="#549F57" height="4" rx="1" ry="1" width="4" x="53.199999999999996" y="41.300000000000004"><title>2024-03-01 179.77 mins</title></rect><rect fill="#549F57" height="4" rx="1" ry="1" width="4" x="53.199999999999996" y="46.699999999999996"><title>2024-03-02 107.62 mins</title></rect><rect fill="#67bf6c" height="4" rx="1" ry="1" width="4" x="53.199999999999996" y="52.1"><title>2024-03-03 46.05 mins</title></rect><text fill="#000000" style="font-size:2.5px; font-family:Arial" x="58.599999999999994" y="18.3">Mar</text><rect fill="#66be6b" height="4" rx="1" ry="1" width="4" x="58.599999999999994" y="19.7"><title>2024-03-04 71.07 mins</title></rect><rect fill="#abe7ad" height="4" rx="1" ry="1" width="4" x="58.599999999999994" y="25.1"><title>2024-03-05 5.7 mins</title></rect><rect fill="#67bf6b" height="4" rx="1" ry="1" width="4" x="58.599999999999994" y="30.5"><title>2024-03-06 54.45 mins</title></rect><rect fill="#66be6b" height="4" rx="1" ry="1" width="4" x="58.599999999999994" y="35.9"><title>2024-03-07 57.97 mins</title></rect><rect fill="#67bf6c" height="4" rx="1" ry="1" width="4" x="58.599999999999994" y="41.300000000000004"><title>2024-03-08 47.4 mins</title></rect><rect fill="#549F57" height="4" rx="1" ry="1" width="4" x="58.599999999999994" y="46.699999999999996"><title>2024-03-09 125.58 mins</title></rect><rect fill="#65bd6a" height="4" rx="1" ry="1" width="4" x="58.599999999999994" y="52.1"><title>2024-03-10 84.03 mins</title></rect><rect fill="#66be6b" height="4" rx="1" ry="1" width="4" x="63.99999999999999" y="19.7"><title>2024-03-11 68.1 mins</title></rect><rect fill="#549F57" height="4" rx="1" ry="1" width="4" x="63.99999999999999" y="25.1"><title>2024-03-12 162.48 mins</title></rect><rect fill="#549F57" height="4" rx="1" ry="1" width="4" x="63.99999999999999" y="30.5"><title>2024-03-13 128.92 mins</title></rect><rect fill="#549F57" height="4" rx="1" ry="1" width="4" x="63.99999999999999" y="35.9"><title>2024-03-14 93.27 mins</title></rect><rect fill="#549F57" height="4" rx="1" ry="1" width="4" x="63.99999999999999" y="41.300000000000004"><title>2024-03-15 190.27 mins</title></rect><rect fill="#549F57" height="4" rx="1" ry="1" width="4" x="63.99999999999999" y="46.699999999999996"><title>2024-03-16 107.05 mins</title></rect><rect fill="#65bd6a" height="4" rx="1" ry="1" width="4" x="63.99999999999999" y="52.1"><title>2024-03-17 90.05 mins</title></rect><rect fill="#66bd6a" height="4" rx="1" ry="1" width="4" x="69.39999999999999" y="19.7"><title>2024-03-18 77.63 mins</title></rect><rect fill="#549F57" height="4" rx="1" ry="1" width="4" x="69.39999999999999" y="25.1"><title>2024-03-19 187.67 mins</title></rect><rect fill="#549F57" height="4" rx="1" ry="1" width="4" x="69.39999999999999" y="30.5"><title>2024-03-20 295.03 mins</title></rect><rect fill="#549F57" height="4" rx="1" ry="1" width="4" x="69.39999999999999" y="35.9"><title>2024-03-21 107.65 mins</title></rect><rect fill="#65bd6a" height="4" rx="1" ry="1" width="4" x="69.39999999999999" y="41.300000000000004"><title>2024-03-22 90.05 mins</title></rect><rect fill="#66be6a" height="4" rx="1" ry="1" width="4" x="69.39999999999999" y="46.699999999999996"><title>2024-03-23 75.48 mins</title></rect><rect fill="#549F57" height="4" rx="1" ry="1" width="4" x="69.39999999999999" y="52.1"><title>2024-03-24 130.13 mins</title></rect><rect fill="#549F57" height="4" rx="1" ry="1" width="4" x="74.8" y="19.7"><title>2024-03-25 210.58 mins</title></rect><rect fill="#a7e5a9" height="4" rx="1" ry="1" width="4" x="74.8" y="25.1"><title>2024-03-26 26.4 mins</title></rect><rect fill="#67bf6c" height="4" rx="1" ry="1" width="4" x="74.8" y="30.5"><title>2024-03-27 43.12 mins</title></rect><rect fill="#66be6b" height="4" rx="1" ry="1" width="4" x="74.8" y="35.9"><title>2024-03-28 64.87 mins</title></rect><rect fill="#66be6b" height="4" rx="1" ry="1" width="4" x="74.8" y="41.300000000000004"><title>2024-03-29 63.32 mins</title></rect><rect fill="#67bf6c" height="4" rx="1" ry="1" width="4" x="74.8" y="46.699999999999996"><title>2024-03-30 43.0 mins</title></rect><rect fill="#549F57" height="4" rx="1" ry="1" width="4" x="74.8" y="52.1"><title>2024-03-31 116.37 mins</title></rect><text fill="#000000" style="font-size:2.5px; font-family:Arial" x="80.2" y="18.3">Apr</text><rect fill="#66be6b" height="4" rx="1" ry="1" width="4" x="80.2" y="19.7"><title>2024-04-01 65.98 mins</title></rect><rect fill="#a9e6ab" height="4" rx="1" ry="1" width="4" x="80.2" y="25.1"><title>2024-04-02 17.57 mins</title></rect><rect fill="#549F57" height="4" rx="1" ry="1" width="4" x="80.2" y="30.5"><title>2024-04-03 313.53 mins</title></rect><rect fill="#549F57" height="4" rx="1" ry="1" width="4" x="80.2" y="35.9"><title>2024-04-04 253.27 mins</title></rect><rect fill="#549F57" height="4" rx="1" ry="1" width="4" x="80.2" y="41.300000000000004"><title>2024-04-05 118.13 mins</title></rect><rect fill="#a9e5ab" height="4" rx="1" ry="1" width="4" x="80.2" y="46.699999999999996"><title>2024-04-06 19.3 mins</title></rect><rect fill="#a6e4a8" height="4" rx="1" ry="1" width="4" x="80.2" y="52.1"><title>2024-04-07 33.57 mins</title></rect><rect fill="#66be6b" height="4" rx="1" ry="1" width="4" x="85.60000000000001" y="19.7"><title>2024-04-08 63.82 mins</title></rect><rect fill="#66be6b" height="4" rx="1" ry="1" width="4" x="85.60000000000001" y="25.1"><title>2024-04-09 66.35 mins</title></rect><rect fill="#67bf6c" height="4" rx="1" ry="1" width="4" x="85.60000000000001" y="30.5"><title>2024-04-10 50.93 mins</title></rect><rect fill="#66be6b" height="4" rx="1" ry="1" width="4" x="85.60000000000001" y="35.9"><title>2024-04-11 67.22 mins</title></rect><rect fill="#67bf6c" height="4" rx="1" ry="1" width="4" x="85.60000000000001" y="41.300000000000004"><title>2024-04-12 46.02 mins</title></rect><rect fill="#a9e5ab" height="4" rx="1" ry="1" width="4" x="85.60000000000001" y="46.699999999999996"><title>2024-04-13 18.88 mins</title></rect><rect fill="#66be6b" height="4" rx="1" ry="1" width="4" x="85.60000000000001" y="52.1"><title>2024-04-14 57.6 mins</title></rect><rect fill="#67bf6c" height="4" rx="1" ry="1" width="4" x="91.00000000000001" y="19.7"><title>2024-04-15 44.2 mins</title></rect><rect fill="#549F57" height="4" rx="1" ry="1" width="4" x="91.00000000000001" y="25.1"><title>2024-04-16 142.38 mins</title></rect><rect fill="#549F57" height="4" rx="1" ry="1" width="4" x="91.00000000000001" y="30.5"><title>2024-04-17 108.3 mins</title></rect><rect fill="#67bf6c" height="4" rx="1" ry="1" width="4" x="91.00000000000001" y="35.9"><title>2024-04-18 49.1 mins</title></rect><rect fill="#a9e6ab" height="4" rx="1" ry="1" width="4" x="91.00000000000001" y="41.300000000000004"><title>2024-04-19 14.52 mins</title></rect><rect fill="#a6e4a8" height="4" rx="1" ry="1" width="4" x="91.00000000000001" y="46.699999999999996"><title>2024-04-20 31.5 mins</title></rect><rect fill="#ace7ae" height="4" rx="1" ry="1" width="4" x="91.00000000000001" y="52.1"><title>2024-04-21 0.07 mins</title></rect><rect fill="#67bf6c" height="4" rx="1" ry="1" width="4" x="96.40000000000002" y="19.7"><title>2024-04-22 51.22 mins</title></rect><rect fill="#abe6ad" height="4" rx="1" ry="1" width="4" x="96.40000000000002" y="25.1"><title>2024-04-23 8.25 mins</title></rect><rect fill="#a7e5a9" height="4" rx="1" ry="1" width="4" x="96.40000000000002" y="30.5"><title>2024-04-24 29.07 mins</title></rect><rect fill="#67bf6c" height="4" rx="1" ry="1" width="4" x="96.40000000000002" y="35.9"><title>2024-04-25 47.88 mins</title></rect><rect fill="#67bf6c" height="4" rx="1" ry="1" width="4" x="96.40000000000002" y="41.300000000000004"><title>2024-04-26 50.25 mins</title></rect><rect fill="#67bf6c" height="4" rx="1" ry="1" width="4" x="96.40000000000002" y="46.699999999999996"><title>2024-04-27 49.02 mins</title></rect><rect fill="#67bf6c" height="4" rx="1" ry="1" width="4" x="96.40000000000002" y="52.1"><title>2024-04-28 51.67 mins</title></rect><rect fill="#a8e5aa" height="4" rx="1" ry="1" width="4" x="101.80000000000003" y="19.7"><title>2024-04-29 23.93 mins</title></rect><rect fill="#abe7ad" height="4" rx="1" ry="1" width="4" x="101.80000000000003" y="25.1"><title>2024-04-30 3.52 mins</title></rect><rect fill="#EBEDF0" height="4" rx="1" ry="1" width="4" x="101.80000000000003" y="30.5"><title>2024-05-01</title></rect><rect fill="#a9e6ab" height="4" rx="1" ry="1" width="4" x="101.80000000000003" y="35.9"><title>2024-05-02 14.53 mins</title></rect><rect fill="#a7e5aa" height="4" rx="1" ry="1" width="4" x="101.80000000000003" y="41.300000000000004"><title>2024-05-03 25.33 mins</title></rect><rect fill="#66be6b" height="4" rx="1" ry="1" width="4" x="101.80000000000003" y="46.699999999999996"><title>2024-05-04 61.5 mins</title></rect><rect fill="#a9e6ab" height="4" rx="1" ry="1" width="4" x="101.80000000000003" y="52.1"><title>2024-05-05 16.15 mins</title></rect><text fill="#000000" style="font-size:2.5px; font-family:Arial" x="107.20000000000003" y="18.3">May</text><rect fill="#a9e6ab" height="4" rx="1" ry="1" width="4" x="107.20000000000003" y="19.7"><title>2024-05-06 18.28 mins</title></rect><rect fill="#67bf6c" height="4" rx="1" ry="1" width="4" x="107.20000000000003" y="25.1"><title>2024-05-07 39.52 mins</title></rect><rect fill="#a7e5a9" height="4" rx="1" ry="1" width="4" x="107.20000000000003" y="30.5"><title>2024-05-08 29.1 mins</title></rect><rect fill="#66be6b" height="4" rx="1" ry="1" width="4" x="107.20000000000003" y="35.9"><title>2024-05-09 73.43 mins</title></rect><rect fill="#a6e4a8" height="4" rx="1" ry="1" width="4" x="107.20000000000003" y="41.300000000000004"><title>2024-05-10 35.55 mins</title></rect><rect fill="#a9e6ab" height="4" rx="1" ry="1" width="4" x="107.20000000000003" y="46.699999999999996"><title>2024-05-11 16.57 mins</title></rect><rect fill="#a6e4a8" height="4" rx="1" ry="1" width="4" x="107.20000000000003" y="52.1"><title>2024-05-12 33.13 mins</title></rect><rect fill="#67bf6c" height="4" rx="1" ry="1" width="4" x="112.60000000000004" y="19.7"><title>2024-05-13 39.92 mins</title></rect><rect fill="#66be6b" height="4" rx="1" ry="1" width="4" x="112.60000000000004" y="25.1"><title>2024-05-14 68.43 mins</title></rect><rect fill="#65bd6a" height="4" rx="1" ry="1" width="4" x="112.60000000000004" y="30.5"><title>2024-05-15 80.03 mins</title></rect><rect fill="#67bf6c" height="4" rx="1" ry="1" width="4" x="112.60000000000004" y="35.9"><title>2024-05-16 49.15 mins</title></rect><rect fill="#549F57" height="4" rx="1" ry="1" width="4" x="112.60000000000004" y="41.300000000000004"><title>2024-05-17 114.72 mins</title></rect><rect fill="#549F57" height="4" rx="1" ry="1" width="4" x="112.60000000000004" y="46.699999999999996"><title>2024-05-18 353.4 mins</title></rect><rect fill="#65bd6a" height="4" rx="1" ry="1" width="4" x="112.60000000000004" y="52.1"><title>2024-05-19 80.15 mins</title></rect><rect fill="#67bf6c" height="4" rx="1" ry="1" width="4" x="118.00000000000004" y="19.7"><title>2024-05-20 51.28 mins</title></rect><rect fill="#66bd6a" height="4" rx="1" ry="1" width="4" x="118.00000000000004" y="25.1"><title>2024-05-21 77.5 mins</title></rect><rect fill="#a8e5aa" height="4" rx="1" ry="1" width="4" x="118.00000000000004" y="30.5"><title>2024-05-22 23.58 mins</title></rect><rect fill="#a6e4a8" height="4" rx="1" ry="1" width="4" x="118.00000000000004" y="35.9"><title>2024-05-23 31.63 mins</title></rect><rect fill="#a6e4a8" height="4" rx="1" ry="1" width="4" x="118.00000000000004" y="41.300000000000004"><title>2024-05-24 35.0 mins</title></rect><rect fill="#a8e5aa" height="4" rx="1" ry="1" width="4" x="118.00000000000004" y="46.699999999999996"><title>2024-05-25 21.0 mins</title></rect><rect fill="#67bf6c" height="4" rx="1" ry="1" width="4" x="118.00000000000004" y="52.1"><title>2024-05-26 41.47 mins</title></rect><rect fill="#a7e5a9" height="4" rx="1" ry="1" width="4" x="123.40000000000005" y="19.7"><title>2024-05-27 28.33 mins</title></rect><rect fill="#549F57" height="4" rx="1" ry="1" width="4" x="123.40000000000005" y="25.1"><title>2024-05-28 109.65 mins</title></rect><rect fill="#67bf6c" height="4" rx="1" ry="1" width="4" x="123.40000000000005" y="30.5"><title>2024-05-29 45.53 mins</title></rect><rect fill="#549F57" height="4" rx="1" ry="1" width="4" x="123.40000000000005" y="35.9"><title>2024-05-30 142.05 mins</title></rect><rect fill="#67bf6c" height="4" rx="1" ry="1" width="4" x="123.40000000000005" y="41.300000000000004"><title>2024-05-31 51.1 mins</title></rect><rect fill="#67bf6c" height="4" rx="1" ry="1" width="4" x="123.40000000000005" y="46.699999999999996"><title>2024-06-01 42.1 mins</title></rect><rect fill="#66be6b" height="4" rx="1" ry="1" width="4" x="123.40000000000005" y="52.1"><title>2024-06-02 62.35 mins</title></rect><text fill="#000000" style="font-size:2.5px; font-family:Arial" x="128.80000000000004" y="18.3">Jun</text><rect fill="#a6e4a8" height="4" rx="1" ry="1" width="4" x="128.80000000000004" y="19.7"><title>2024-06-03 32.52 mins</title></rect><rect fill="#549F57" height="4" rx="1" ry="1" width="4" x="128.80000000000004" y="25.1"><title>2024-06-04 117.67 mins</title></rect><rect fill="#67bf6c" height="4" rx="1" ry="1" width="4" x="128.80000000000004" y="30.5"><title>2024-06-05 47.72 mins</title></rect><rect fill="#66be6b" height="4" rx="1" ry="1" width="4" x="128.80000000000004" y="35.9"><title>2024-06-06 67.65 mins</title></rect><rect fill="#549F57" height="4" rx="1" ry="1" width="4" x="128.80000000000004" y="41.300000000000004"><title>2024-06-07 136.27 mins</title></rect><rect fill="#66be6b" height="4" rx="1" ry="1" width="4" x="128.80000000000004" y="46.699999999999996"><title>2024-06-08 66.1 mins</title></rect><rect fill="#a9e5ab" height="4" rx="1" ry="1" width="4" x="128.80000000000004" y="52.1"><title>2024-06-09 18.7 mins</title></rect><rect fill="#a5e4a8" height="4" rx="1" ry="1" width="4" x="134.20000000000005" y="19.7"><title>2024-06-10 36.35 mins</title></rect><rect fill="#66be6b" height="4" rx="1" ry="1" width="4" x="134.20000000000005" y="25.1"><title>2024-06-11 63.47 mins</title></rect><rect fill="#65bd6a" height="4" rx="1" ry="1" width="4" x="134.20000000000005" y="30.5"><title>2024-06-12 84.58 mins</title></rect><rect fill="#549F57" height="4" rx="1" ry="1" width="4" x="134.20000000000005" y="35.9"><title>2024-06-13 161.03 mins</title></rect><rect fill="#a8e5aa" height="4" rx="1" ry="1" width="4" x="134.20000000000005" y="41.300000000000004"><title>2024-06-14 20.9 mins</title></rect><rect fill="#a5e4a7" height="4" rx="1" ry="1" width="4" x="134.20000000000005" y="46.699999999999996"><title>2024-06-15 37.27 mins</title></rect><rect fill="#aae6ac" height="4" rx="1" ry="1" width="4" x="134.20000000000005" y="52.1"><title>2024-06-16 10.82 mins</title></rect><rect fill="#a9e6ab" height="4" rx="1" ry="1" width="4" x="139.60000000000005" y="19.7"><title>2024-06-17 16.18 mins</title></rect><rect fill="#aae6ac" height="4" rx="1" ry="1" width="4" x="139.60000000000005" y="25.1"><title>2024-06-18 10.78 mins</title></rect><rect fill="#a9e6ab" height="4" rx="1" ry="1" width="4" x="139.60000000000005" y="30.5"><title>2024-06-19 14.9 mins</title></rect><rect fill="#abe6ad" height="4" rx="1" ry="1" width="4" x="139.60000000000005" y="35.9"><title>2024-06-20 8.18 mins</title></rect><rect fill="#66be6b" height="4" rx="1" ry="1" width="4" x="139.60000000000005" y="41.300000000000004"><title>2024-06-21 55.97 mins</title></rect><rect fill="#a8e5ab" height="4" rx="1" ry="1" width="4" x="139.60000000000005" y="46.699999999999996"><title>2024-06-22 19.63 mins</title></rect><rect fill="#67bf6b" height="4" rx="1" ry="1" width="4" x="139.60000000000005" y="52.1"><title>2024-06-23 54.38 mins</title></rect><rect fill="#abe7ad" height="4" rx="1" ry="1" width="4" x="145.00000000000006" y="19.7"><title>2024-06-24 2.98 mins</title></rect><rect fill="#a6e4a8" height="4" rx="1" ry="1" width="4" x="145.00000000000006" y="25.1"><title>2024-06-25 32.58 mins</title></rect><rect fill="#abe6ad" height="4" rx="1" ry="1" width="4" x="145.00000000000006" y="30.5"><title>2024-06-26 6.6 mins</title></rect><rect fill="#67bf6c" height="4" rx="1" ry="1" width="4" x="145.00000000000006" y="35.9"><title>2024-06-27 37.95 mins</title></rect><rect fill="#aae6ac" height="4" rx="1" ry="1" width="4" x="145.00000000000006" y="41.300000000000004"><title>2024-06-28 9.08 mins</title></rect><rect fill="#a9e6ac" height="4" rx="1" ry="1" width="4" x="145.00000000000006" y="46.699999999999996"><title>2024-06-29 13.88 mins</title></rect><rect fill="#abe7ad" height="4" rx="1" ry="1" width="4" x="145.00000000000006" y="52.1"><title>2024-06-30 6.2 mins</title></rect><text fill="#000000" style="font-size:2.5px; font-family:Arial" x="150.40000000000006" y="18.3">Jul</text><rect fill="#67bf6c" height="4" rx="1" ry="1" width="4" x="150.40000000000006" y="19.7"><title>2024-07-01 42.75 mins</title></rect><rect fill="#a9e6ab" height="4" rx="1" ry="1" width="4" x="150.40000000000006" y="25.1"><title>2024-07-02 16.3 mins</title></rect><rect fill="#abe6ad" height="4" rx="1" ry="1" width="4" x="150.40000000000006" y="30.5"><title>2024-07-03 6.63 mins</title></rect><rect fill="#a6e4a8" height="4" rx="1" ry="1" width="4" x="150.40000000000006" y="35.9"><title>2024-07-04 33.6 mins</title></rect><rect fill="#a8e5aa" height="4" rx="1" ry="1" width="4" x="150.40000000000006" y="41.300000000000004"><title>2024-07-05 21.47 mins</title></rect><rect fill="#a9e6ac" height="4" rx="1" ry="1" width="4" x="150.40000000000006" y="46.699999999999996"><title>2024-07-06 14.0 mins</title></rect><rect fill="#EBEDF0" height="4" rx="1" ry="1" width="4" x="150.40000000000006" y="52.1"><title>2024-07-07</title></rect><rect fill="#549F57" height="4" rx="1" ry="1" width="4" x="155.80000000000007" y="19.7"><title>2024-07-08 134.92 mins</title></rect><rect fill="#549F57" height="4" rx="1" ry="1" width="4" x="155.80000000000007" y="25.1"><title>2024-07-09 160.07 mins</title></rect><rect fill="#66be6b" height="4" rx="1" ry="1" width="4" x="155.80000000000007" y="30.5"><title>2024-07-10 73.5 mins</title></rect><rect fill="#549F57" height="4" rx="1" ry="1" width="4" x="155.80000000000007" y="35.9"><title>2024-07-11 184.7 mins</title></rect><rect fill="#549F57" height="4" rx="1" ry="1" width="4" x="155.80000000000007" y="41.300000000000004"><title>2024-07-12 610.38 mins</title></rect><rect fill="#67bf6c" height="4" rx="1" ry="1" width="4" x="155.80000000000007" y="46.699999999999996"><title>2024-07-13 42.15 mins</title></rect><rect fill="#549F57" height="4" rx="1" ry="1" width="4" x="155.80000000000007" y="52.1"><title>2024-07-14 171.28 mins</title></rect><rect fill="#67bf6c" height="4" rx="1" ry="1" width="4" x="161.20000000000007" y="19.7"><title>2024-07-15 46.58 mins</title></rect><rect fill="#549F57" height="4" rx="1" ry="1" width="4" x="161.20000000000007" y="25.1"><title>2024-07-16 130.12 mins</title></rect><rect fill="#EBEDF0" height="4" rx="1" ry="1" width="4" x="161.20000000000007" y="30.5"><title>2024-07-17</title></rect><rect fill="#abe6ad" height="4" rx="1" ry="1" width="4" x="161.20000000000007" y="35.9"><title>2024-07-18 7.65 mins</title></rect><rect fill="#EBEDF0" height="4" rx="1" ry="1" width="4" x="161.20000000000007" y="41.300000000000004"><title>2024-07-19</title></rect><rect fill="#66be6b" height="4" rx="1" ry="1" width="4" x="161.20000000000007" y="46.699999999999996"><title>2024-07-20 67.58 mins</title></rect><rect fill="#67bf6c" height="4" rx="1" ry="1" width="4" x="161.20000000000007" y="52.1"><title>2024-07-21 49.28 mins</title></rect><rect fill="#a9e6ac" height="4" rx="1" ry="1" width="4" x="166.60000000000008" y="19.7"><title>2024-07-22 14.0 mins</title></rect><rect fill="#aae6ac" height="4" rx="1" ry="1" width="4" x="166.60000000000008" y="25.1"><title>2024-07-23 13.23 mins</title></rect><rect fill="#a9e5ab" height="4" rx="1" ry="1" width="4" x="166.60000000000008" y="30.5"><title>2024-07-24 18.67 mins</title></rect><rect fill="#a9e6ab" height="4" rx="1" ry="1" width="4" x="166.60000000000008" y="35.9"><title>2024-07-25 17.03 mins</title></rect><rect fill="#a9e6ac" height="4" rx="1" ry="1" width="4" x="166.60000000000008" y="41.300000000000004"><title>2024-07-26 14.1 mins</title></rect><rect fill="#abe7ae" height="4" rx="1" ry="1" width="4" x="166.60000000000008" y="46.699999999999996"><title>2024-07-27 2.82 mins</title></rect><rect fill="#a7e5a9" height="4" rx="1" ry="1" width="4" x="166.60000000000008" y="52.1"><title>2024-07-28 25.48 mins</title></rect><rect fill="#aae6ac" height="4" rx="1" ry="1" width="4" x="172.00000000000009" y="19.7"><title>2024-07-29 12.33 mins</title></rect><rect fill="#a7e5a9" height="4" rx="1" ry="1" width="4" x="172.00000000000009" y="25.1"><title>2024-07-30 29.55 mins</title></rect><rect fill="#aae6ac" height="4" rx="1" ry="1" width="4" x="172.00000000000009" y="30.5"><title>2024-07-31 13.65 mins</title></rect><rect fill="#a7e5a9" height="4" rx="1" ry="1" width="4" x="172.00000000000009" y="35.9"><title>2024-08-01 29.47 mins</title></rect><rect fill="#a7e5a9" height="4" rx="1" ry="1" width="4" x="172.00000000000009" y="41.300000000000004"><title>2024-08-02 27.7 mins</title></rect><rect fill="#abe7ad" height="4" rx="1" ry="1" width="4" x="172.00000000000009" y="46.699999999999996"><title>2024-08-03 5.05 mins</title></rect><rect fill="#ace7ae" height="4" rx="1" ry="1" width="4" x="172.00000000000009" y="52.1"><title>2024-08-04 0.35 mins</title></rect><text fill="#000000" style="font-size:2.5px; font-family:Arial" x="177.4000000000001" y="18.3">Aug</text><rect fill="#EBEDF0" height="4" rx="1" ry="1" width="4" x="177.4000000000001" y="19.7"><title>2024-08-05</title></rect><rect fill="#EBEDF0" height="4" rx="1" ry="1" width="4" x="177.4000000000001" y="25.1"><title>2024-08-06</title></rect><rect fill="#EBEDF0" height="4" rx="1" ry="1" width="4" x="177.4000000000001" y="30.5"><title>2024-08-07</title></rect><rect fill="#67bf6b" height="4" rx="1" ry="1" width="4" x="177.4000000000001" y="35.9"><title>2024-08-08 53.2 mins</title></rect><rect fill="#a7e5a9" height="4" rx="1" ry="1" width="4" x="177.4000000000001" y="41.300000000000004"><title>2024-08-09 29.37 mins</title></rect><rect fill="#67bf6c" height="4" rx="1" ry="1" width="4" x="177.4000000000001" y="46.699999999999996"><title>2024-08-10 43.22 mins</title></rect><rect fill="#EBEDF0" height="4" rx="1" ry="1" width="4" x="177.4000000000001" y="52.1"><title>2024-08-11</title></rect><rect fill="#EBEDF0" height="4" rx="1" ry="1" width="4" x="182.8000000000001" y="19.7"><title>2024-08-12</title></rect><rect fill="#EBEDF0" height="4" rx="1" ry="1" width="4" x="182.8000000000001" y="25.1"><title>2024-08-13</title></rect><rect fill="#EBEDF0" height="4" rx="1" ry="1" width="4" x="182.8000000000001" y="30.5"><title>2024-08-14</title></rect><rect fill="#EBEDF0" height="4" rx="1" ry="1" width="4" x="182.8000000000001" y="35.9"><title>2024-08-15</title></rect><rect fill="#EBEDF0" height="4" rx="1" ry="1" width="4" x="182.8000000000001" y="41.300000000000004"><title>2024-08-16</title></rect><rect fill="#549F57" height="4" rx="1" ry="1" width="4" x="182.8000000000001" y="46.699999999999996"><title>2024-08-17 170.83 mins</title></rect><rect fill="#549F57" height="4" rx="1" ry="1" width="4" x="182.8000000000001" y="52.1"><title>2024-08-18 148.5 mins</title></rect><rect fill="#65bd6a" height="4" rx="1" ry="1" width="4" x="188.2000000000001" y="19.7"><title>2024-08-19 79.47 mins</title></rect><rect fill="#abe6ad" height="4" rx="1" ry="1" width="4" x="188.2000000000001" y="25.1"><title>2024-08-20 7.37 mins</title></rect><rect fill="#67bf6c" height="4" rx="1" ry="1" width="4" x="188.2000000000001" y="30.5"><title>2024-08-21 52.73 mins</title></rect><rect fill="#66be6b" height="4" rx="1" ry="1" width="4" x="188.2000000000001" y="35.9"><title>2024-08-22 71.9 mins</title></rect><rect fill="#a9e6ab" height="4" rx="1" ry="1" width="4" x="188.2000000000001" y="41.300000000000004"><title>2024-08-23 16.18 mins</title></rect><rect fill="#549F57" height="4" rx="1" ry="1" width="4" x="188.2000000000001" y="46.699999999999996"><title>2024-08-24 277.9 mins</title></rect><rect fill="#65bd6a" height="4" rx="1" ry="1" width="4" x="188.2000000000001" y="52.1"><title>2024-08-25 78.45 mins</title></rect><rect fill="#a6e4a8" height="4" rx="1" ry="1" width="4" x="193.6000000000001" y="19.7"><title>2024-08-26 32.67 mins</title></rect><rect fill="#549F57" height="4" rx="1" ry="1" width="4" x="193.6000000000001" y="25.1"><title>2024-08-27 100.22 mins</title></rect><rect fill="#67bf6c" height="4" rx="1" ry="1" width="4" x="193.6000000000001" y="30.5"><title>2024-08-28 52.12 mins</title></rect><rect fill="#549F57" height="4" rx="1" ry="1" width="4" x="193.6000000000001" y="35.9"><title>2024-08-29 109.45 mins</title></rect><rect fill="#65bd6a" height="4" rx="1" ry="1" width="4" x="193.6000000000001" y="41.300000000000004"><title>2024-08-30 86.93 mins</title></rect><rect fill="#549F57" height="4" rx="1" ry="1" width="4" x="193.6000000000001" y="46.699999999999996"><title>2024-08-31 255.0 mins</title></rect><rect fill="#549F57" height="4" rx="1" ry="1" width="4" x="193.6000000000001" y="52.1"><title>2024-09-01 189.65 mins</title></rect><text fill="#000000" style="font-size:2.5px; font-family:Arial" x="199.0000000000001" y="18.3">Sep</text><rect fill="#abe6ad" height="4" rx="1" ry="1" width="4" x="199.0000000000001" y="19.7"><title>2024-09-02 6.62 mins</title></rect><rect fill="#67bf6c" height="4" rx="1" ry="1" width="4" x="199.0000000000001" y="25.1"><title>2024-09-03 39.62 mins</title></rect><rect fill="#ace7ae" height="4" rx="1" ry="1" width="4" x="199.0000000000001" y="30.5"><title>2024-09-04 1.27 mins</title></rect><rect fill="#a5e4a7" height="4" rx="1" ry="1" width="4" x="199.0000000000001" y="35.9"><title>2024-09-05 37.47 mins</title></rect><rect fill="#ace7ae" height="4" rx="1" ry="1" width="4" x="199.0000000000001" y="41.300000000000004"><title>2024-09-06 0.52 mins</title></rect><rect fill="#a6e4a8" height="4" rx="1" ry="1" width="4" x="199.0000000000001" y="46.699999999999996"><title>2024-09-07 32.97 mins</title></rect><rect fill="#ace7ae" height="4" rx="1" ry="1" width="4" x="199.0000000000001" y="52.1"><title>2024-09-08 0.9 mins</title></rect><rect fill="#67bf6c" height="4" rx="1" ry="1" width="4" x="204.40000000000012" y="19.7"><title>2024-09-09 52.38 mins</title></rect><rect fill="#66be6b" height="4" rx="1" ry="1" width="4" x="204.40000000000012" y="25.1"><title>2024-09-10 55.85 mins</title></rect><rect fill="#67bf6c" height="4" rx="1" ry="1" width="4" x="204.40000000000012" y="30.5"><title>2024-09-11 49.13 mins</title></rect><rect fill="#549F57" height="4" rx="1" ry="1" width="4" x="204.40000000000012" y="35.9"><title>2024-09-12 115.9 mins</title></rect><rect fill="#66be6b" height="4" rx="1" ry="1" width="4" x="204.40000000000012" y="41.300000000000004"><title>2024-09-13 68.02 mins</title></rect><rect fill="#549F57" height="4" rx="1" ry="1" width="4" x="204.40000000000012" y="46.699999999999996"><title>2024-09-14 101.97 mins</title></rect><rect fill="#a9e6ab" height="4" rx="1" ry="1" width="4" x="204.40000000000012" y="52.1"><title>2024-09-15 16.53 mins</title></rect><rect fill="#abe7ad" height="4" rx="1" ry="1" width="4" x="209.80000000000013" y="19.7"><title>2024-09-16 3.7 mins</title></rect><rect fill="#549F57" height="4" rx="1" ry="1" width="4" x="209.80000000000013" y="25.1"><title>2024-09-17 124.98 mins</title></rect><rect fill="#ace7ae" height="4" rx="1" ry="1" width="4" x="209.80000000000013" y="30.5"><title>2024-09-18 1.18 mins</title></rect><rect fill="#abe6ad" height="4" rx="1" ry="1" width="4" x="209.80000000000013" y="35.9"><title>2024-09-19 7.33 mins</title></rect><rect fill="#67bf6b" height="4" rx="1" ry="1" width="4" x="209.80000000000013" y="41.300000000000004"><title>2024-09-20 54.67 mins</title></rect><rect fill="#66be6b" height="4" rx="1" ry="1" width="4" x="209.80000000000013" y="46.699999999999996"><title>2024-09-21 66.7 mins</title></rect><rect fill="#aae6ac" height="4" rx="1" ry="1" width="4" x="209.80000000000013" y="52.1"><title>2024-09-22 9.38 mins</title></rect><rect fill="#a6e4a8" height="4" rx="1" ry="1" width="4" x="215.20000000000013" y="19.7"><title>2024-09-23 35.83 mins</title></rect><rect fill="#EBEDF0" height="4" rx="1" ry="1" width="4" x="215.20000000000013" y="25.1"><title>2024-09-24</title></rect><rect fill="#549F57" height="4" rx="1" ry="1" width="4" x="215.20000000000013" y="30.5"><title>2024-09-25 184.55 mins</title></rect><rect fill="#67bf6c" height="4" rx="1" ry="1" width="4" x="215.20000000000013" y="35.9"><title>2024-09-26 44.1 mins</title></rect><rect fill="#a6e4a8" height="4" rx="1" ry="1" width="4" x="215.20000000000013" y="41.300000000000004"><title>2024-09-27 34.88 mins</title></rect><rect fill="#a7e5a9" height="4" rx="1" ry="1" width="4" x="215.20000000000013" y="46.699999999999996"><title>2024-09-28 28.67 mins</title></rect><rect fill="#ace7ae" height="4" rx="1" ry="1" width="4" x="215.20000000000013" y="52.1"><title>2024-09-29 1.27 mins</title></rect><rect fill="#a7e5a9" height="4" rx="1" ry="1" width="4" x="220.60000000000014" y="19.7"><title>2024-09-30 28.73 mins</title></rect><rect fill="#ace7ae" height="4" rx="1" ry="1" width="4" x="220.60000000000014" y="25.1"><title>2024-10-01 0.87 mins</title></rect><rect fill="#a7e5a9" height="4" rx="1" ry="1" width="4" x="220.60000000000014" y="30.5"><title>2024-10-02 30.32 mins</title></rect><rect fill="#67bf6c" height="4" rx="1" ry="1" width="4" x="220.60000000000014" y="35.9"><title>2024-10-03 41.75 mins</title></rect><rect fill="#67bf6c" height="4" rx="1" ry="1" width="4" x="220.60000000000014" y="41.300000000000004"><title>2024-10-04 39.6 mins</title></rect><rect fill="#a7e5a9" height="4" rx="1" ry="1" width="4" x="220.60000000000014" y="46.699999999999996"><title>2024-10-05 28.05 mins</title></rect><rect fill="#EBEDF0" height="4" rx="1" ry="1" width="4" x="220.60000000000014" y="52.1"><title>2024-10-06</title></rect><text fill="#000000" style="font-size:2.5px; font-family:Arial" x="226.00000000000014" y="18.3">Oct</text><rect fill="#a9e6ab" height="4" rx="1" ry="1" width="4" x="226.00000000000014" y="19.7"><title>2024-10-07 14.18 mins</title></rect><rect fill="#66be6b" height="4" rx="1" ry="1" width="4" x="226.00000000000014" y="25.1"><title>2024-10-08 64.05 mins</title></rect><rect fill="#67bf6c" height="4" rx="1" ry="1" width="4" x="226.00000000000014" y="30.5"><title>2024-10-09 42.93 mins</title></rect><rect fill="#65bd6a" height="4" rx="1" ry="1" width="4" x="226.00000000000014" y="35.9"><title>2024-10-10 79.48 mins</title></rect><rect fill="#66be6b" height="4" rx="1" ry="1" width="4" x="226.00000000000014" y="41.300000000000004"><title>2024-10-11 66.88 mins</title></rect><rect fill="#549F57" height="4" rx="1" ry="1" width="4" x="226.00000000000014" y="46.699999999999996"><title>2024-10-12 120.97 mins</title></rect><rect fill="#65bd6a" height="4" rx="1" ry="1" width="4" x="226.00000000000014" y="52.1"><title>2024-10-13 82.6 mins</title></rect><rect fill="#67bf6c" height="4" rx="1" ry="1" width="4" x="231.40000000000015" y="19.7"><title>2024-10-14 51.83 mins</title></rect><rect fill="#67bf6c" height="4" rx="1" ry="1" width="4" x="231.40000000000015" y="25.1"><title>2024-10-15 46.75 mins</title></rect><rect fill="#ace7ae" height="4" rx="1" ry="1" width="4" x="231.40000000000015" y="30.5"><title>2024-10-16 0.22 mins</title></rect><rect fill="#a7e5a9" height="4" rx="1" ry="1" width="4" x="231.40000000000015" y="35.9"><title>2024-10-17 27.25 mins</title></rect><rect fill="#ace7ae" height="4" rx="1" ry="1" width="4" x="231.40000000000015" y="41.300000000000004"><title>2024-10-18 0.1 mins</title></rect><rect fill="#ace7ae" height="4" rx="1" ry="1" width="4" x="231.40000000000015" y="46.699999999999996"><title>2024-10-19 0.25 mins</title></rect><rect fill="#a5e4a7" height="4" rx="1" ry="1" width="4" x="231.40000000000015" y="52.1"><title>2024-10-20 37.18 mins</title></rect><rect fill="#a9e6ab" height="4" rx="1" ry="1" width="4" x="236.80000000000015" y="19.7"><title>2024-10-21 14.3 mins</title></rect><rect fill="#aae6ad" height="4" rx="1" ry="1" width="4" x="236.80000000000015" y="25.1"><title>2024-10-22 8.37 mins</title></rect><rect fill="#abe7ad" height="4" rx="1" ry="1" width="4" x="236.80000000000015" y="30.5"><title>2024-10-23 5.05 mins</title></rect><rect fill="#a9e6ab" height="4" rx="1" ry="1" width="4" x="236.80000000000015" y="35.9"><title>2024-10-24 14.92 mins</title></rect><rect fill="#ace7ae" height="4" rx="1" ry="1" width="4" x="236.80000000000015" y="41.300000000000004"><title>2024-10-25 1.08 mins</title></rect><rect fill="#a7e5a9" height="4" rx="1" ry="1" width="4" x="236.80000000000015" y="46.699999999999996"><title>2024-10-26 28.92 mins</title></rect><rect fill="#abe7ad" height="4" rx="1" ry="1" width="4" x="236.80000000000015" y="52.1"><title>2024-10-27 4.28 mins</title></rect><rect fill="#abe7ad" height="4" rx="1" ry="1" width="4" x="242.20000000000016" y="19.7"><title>2024-10-28 4.27 mins</title></rect><rect fill="#67bf6c" height="4" rx="1" ry="1" width="4" x="242.20000000000016" y="25.1"><title>2024-10-29 43.12 mins</title></rect><rect fill="#ace7ae" height="4" rx="1" ry="1" width="4" x="242.20000000000016" y="30.5"><title>2024-10-30 0.05 mins</title></rect><rect fill="#abe7ad" height="4" rx="1" ry="1" width="4" x="242.20000000000016" y="35.9"><title>2024-10-31 4.85 mins</title></rect><rect fill="#66be6b" height="4" rx="1" ry="1" width="4" x="242.20000000000016" y="41.300000000000004"><title>2024-11-01 62.65 mins</title></rect><rect fill="#549F57" height="4" rx="1" ry="1" width="4" x="242.20000000000016" y="46.699999999999996"><title>2024-11-02 345.25 mins</title></rect><rect fill="#549F57" height="4" rx="1" ry="1" width="4" x="242.20000000000016" y="52.1"><title>2024-11-03 472.93 mins</title></rect><text fill="#000000" style="font-size:2.5px; font-family:Arial" x="247.60000000000016" y="18.3">Nov</text><rect fill="#549F57" height="4" rx="1" ry="1" width="4" x="247.60000000000016" y="19.7"><title>2024-11-04 98.65 mins</title></rect><rect fill="#65bd6a" height="4" rx="1" ry="1" width="4" x="247.60000000000016" y="25.1"><title>2024-11-05 88.68 mins</title></rect><rect fill="#abe7ad" height="4" rx="1" ry="1" width="4" x="247.60000000000016" y="30.5"><title>2024-11-06 3.98 mins</title></rect><rect fill="#66be6b" height="4" rx="1" ry="1" width="4" x="247.60000000000016" y="35.9"><title>2024-11-07 58.57 mins</title></rect><rect fill="#65bd6a" height="4" rx="1" ry="1" width="4" x="247.60000000000016" y="41.300000000000004"><title>2024-11-08 83.75 mins</title></rect><rect fill="#ace7ae" height="4" rx="1" ry="1" width="4" x="247.60000000000016" y="46.699999999999996"><title>2024-11-09 0.03 mins</title></rect><rect fill="#ace7ae" height="4" rx="1" ry="1" width="4" x="247.60000000000016" y="52.1"><title>2024-11-10 1.02 mins</title></rect><rect fill="#ace7ae" height="4" rx="1" ry="1" width="4" x="253.00000000000017" y="19.7"><title>2024-11-11 0.5 mins</title></rect><rect fill="#aae6ac" height="4" rx="1" ry="1" width="4" x="253.00000000000017" y="25.1"><title>2024-11-12 11.42 mins</title></rect><rect fill="#aae6ac" height="4" rx="1" ry="1" width="4" x="253.00000000000017" y="30.5"><title>2024-11-13 11.75 mins</title></rect><rect fill="#a9e6ab" height="4" rx="1" ry="1" width="4" x="253.00000000000017" y="35.9"><title>2024-11-14 14.2 mins</title></rect><rect fill="#a7e5a9" height="4" rx="1" ry="1" width="4" x="253.00000000000017" y="41.300000000000004"><title>2024-11-15 29.03 mins</title></rect><rect fill="#ace7ae" height="4" rx="1" ry="1" width="4" x="253.00000000000017" y="46.699999999999996"><title>2024-11-16 0.5 mins</title></rect><rect fill="#a9e6ac" height="4" rx="1" ry="1" width="4" x="253.00000000000017" y="52.1"><title>2024-11-17 13.98 mins</title></rect><rect fill="#67bf6c" height="4" rx="1" ry="1" width="4" x="258.40000000000015" y="19.7"><title>2024-11-18 38.32 mins</title></rect><rect fill="#a9e6ab" height="4" rx="1" ry="1" width="4" x="258.40000000000015" y="25.1"><title>2024-11-19 17.42 mins</title></rect><rect fill="#ace7ae" height="4" rx="1" ry="1" width="4" x="258.40000000000015" y="30.5"><title>2024-11-20 0.65 mins</title></rect><rect fill="#abe7ad" height="4" rx="1" ry="1" width="4" x="258.40000000000015" y="35.9"><title>2024-11-21 4.0 mins</title></rect><rect fill="#ace7ae" height="4" rx="1" ry="1" width="4" x="258.40000000000015" y="41.300000000000004"><title>2024-11-22 1.12 mins</title></rect><rect fill="#aae6ac" height="4" rx="1" ry="1" width="4" x="258.40000000000015" y="46.699999999999996"><title>2024-11-23 12.8 mins</title></rect><rect fill="#ace7ae" height="4" rx="1" ry="1" width="4" x="258.40000000000015" y="52.1"><title>2024-11-24 1.0 mins</title></rect><rect fill="#ace7ae" height="4" rx="1" ry="1" width="4" x="263.8000000000001" y="19.7"><title>2024-11-25 2.05 mins</title></rect><rect fill="#a7e5a9" height="4" rx="1" ry="1" width="4" x="263.8000000000001" y="25.1"><title>2024-11-26 25.77 mins</title></rect><rect fill="#66be6b" height="4" rx="1" ry="1" width="4" x="263.8000000000001" y="30.5"><title>2024-11-27 59.88 mins</title></rect><rect fill="#a9e6ac" height="4" rx="1" ry="1" width="4" x="263.8000000000001" y="35.9"><title>2024-11-28 13.88 mins</title></rect><rect fill="#549F57" height="4" rx="1" ry="1" width="4" x="263.8000000000001" y="41.300000000000004"><title>2024-11-29 309.37 mins</title></rect><rect fill="#549F57" height="4" rx="1" ry="1" width="4" x="263.8000000000001" y="46.699999999999996"><title>2024-11-30 146.1 mins</title></rect><rect fill="#549F57" height="4" rx="1" ry="1" width="4" x="263.8000000000001" y="52.1"><title>2024-12-01 239.98 mins</title></rect><text fill="#000000" style="font-size:2.5px; font-family:Arial" x="269.2000000000001" y="18.3">Dec</text><rect fill="#549F57" height="4" rx="1" ry="1" width="4" x="269.2000000000001" y="19.7"><title>2024-12-02 311.25 mins</title></rect><rect fill="#549F57" height="4" rx="1" ry="1" width="4" x="269.2000000000001" y="25.1"><title>2024-12-03 224.87 mins</title></rect><rect fill="#549F57" height="4" rx="1" ry="1" width="4" x="269.2000000000001" y="30.5"><title>2024-12-04 181.78 mins</title></rect><rect fill="#549F57" height="4" rx="1" ry="1" width="4" x="269.2000000000001" y="35.9"><title>2024-12-05 120.02 mins</title></rect><rect fill="#a7e5a9" height="4" rx="1" ry="1" width="4" x="269.2000000000001" y="41.300000000000004"><title>2024-12-06 30.3 mins</title></rect><rect fill="#abe7ad" height="4" rx="1" ry="1" width="4" x="269.2000000000001" y="46.699999999999996"><title>2024-12-07 4.63 mins</title></rect><rect fill="#66be6a" height="4" rx="1" ry="1" width="4" x="269.2000000000001" y="52.1"><title>2024-12-08 74.33 mins</title></rect><rect fill="#67bf6b" height="4" rx="1" ry="1" width="4" x="274.6000000000001" y="19.7"><title>2024-12-09 55.18 mins</title></rect><rect fill="#ace7ae" height="4" rx="1" ry="1" width="4" x="274.6000000000001" y="25.1"><title>2024-12-10 0.05 mins</title></rect><rect fill="#65bd6a" height="4" rx="1" ry="1" width="4" x="274.6000000000001" y="30.5"><title>2024-12-11 83.17 mins</title></rect><rect fill="#66be6b" height="4" rx="1" ry="1" width="4" x="274.6000000000001" y="35.9"><title>2024-12-12 69.92 mins</title></rect><rect fill="#a6e4a8" height="4" rx="1" ry="1" width="4" x="274.6000000000001" y="41.300000000000004"><title>2024-12-13 32.23 mins</title></rect><rect fill="#a9e5ab" height="4" rx="1" ry="1" width="4" x="274.6000000000001" y="46.699999999999996"><title>2024-12-14 18.82 mins</title></rect><rect fill="#a8e5aa" height="4" rx="1" ry="1" width="4" x="274.6000000000001" y="52.1"><title>2024-12-15 23.45 mins</title></rect><rect fill="#a8e5aa" height="4" rx="1" ry="1" width="4" x="280.00000000000006" y="19.7"><title>2024-12-16 20.63 mins</title></rect><rect fill="#aae6ac" height="4" rx="1" ry="1" width="4" x="280.00000000000006" y="25.1"><title>2024-12-17 10.32 mins</title></rect><rect fill="#a8e5aa" height="4" rx="1" ry="1" width="4" x="280.00000000000006" y="30.5"><title>2024-12-18 20.67 mins</title></rect><rect fill="#67bf6c" height="4" rx="1" ry="1" width="4" x="280.00000000000006" y="35.9"><title>2024-12-19 45.83 mins</title></rect><rect fill="#a9e5ab" height="4" rx="1" ry="1" width="4" x="280.00000000000006" y="41.300000000000004"><title>2024-12-20 19.07 mins</title></rect><rect fill="#aae6ac" height="4" rx="1" ry="1" width="4" x="280.00000000000006" y="46.699999999999996"><title>2024-12-21 11.7 mins</title></rect><rect fill="#EBEDF0" height="4" rx="1" ry="1" width="4" x="280.00000000000006" y="52.1"><title>2024-12-22</title></rect><rect fill="#ace7ae" height="4" rx="1" ry="1" width="4" x="285.40000000000003" y="19.7"><title>2024-12-23 0.28 mins</title></rect><rect fill="#EBEDF0" height="4" rx="1" ry="1" width="4" x="285.40000000000003" y="25.1"><title>2024-12-24</title></rect><rect fill="#EBEDF0" height="4" rx="1" ry="1" width="4" x="285.40000000000003" y="30.5"><title>2024-12-25</title></rect><rect fill="#EBEDF0" height="4" rx="1" ry="1" width="4" x="285.40000000000003" y="35.9"><title>2024-12-26</title></rect><rect fill="#EBEDF0" height="4" rx="1" ry="1" width="4" x="285.40000000000003" y="41.300000000000004"><title>2024-12-27</title></rect><rect fill="#EBEDF0" height="4" rx="1" ry="1" width="4" x="285.40000000000003" y="46.699999999999996"><title>2024-12-28</title></rect><rect fill="#EBEDF0" height="4" rx="1" ry="1" width="4" x="285.40000000000003" y="52.1"><title>2024-12-29</title></rect><rect fill="#EBEDF0" height="4" rx="1" ry="1" width="4" x="290.8" y="19.7"><title>2024-12-30</title></rect><rect fill="#EBEDF0" height="4" rx="1" ry="1" width="4" x="290.8" y="25.1"><title>2024-12-31</title></rect></svg>